<?xml version="1.0" encoding="UTF-8" standalone="no"?><!DOCTYPE svg PUBLIC "-//W3C//DTD SVG 1.1//EN" "http://www.w3.org/Graphics/SVG/1.1/DTD/svg11.dtd"><svg width="100%" height="100%" viewBox="0 0 21 21" version="1.1" xmlns="http://www.w3.org/2000/svg" xmlns:xlink="http://www.w3.org/1999/xlink" xml:space="preserve" xmlns:serif="http://www.serif.com/" style="fill-rule:evenodd;clip-rule:evenodd;stroke-linejoin:round;stroke-miterlimit:2;"><g id="opensea"><path d="M20.999,10.499c-0,5.799 -4.701,10.5 -10.5,10.5c-5.798,-0 -10.499,-4.701 -10.499,-10.5c0,-5.798 4.701,-10.499 10.499,-10.499c5.8,-0 10.5,4.701 10.5,10.499Z" style="fill:#2081e2;fill-rule:nonzero;"/><path d="M5.18,10.852l0.045,-0.071l2.732,-4.273c0.039,-0.062 0.133,-0.056 0.164,0.012c0.456,1.023 0.85,2.294 0.665,3.086c-0.079,0.326 -0.294,0.767 -0.537,1.175c-0.031,0.059 -0.066,0.118 -0.103,0.174c-0.017,0.026 -0.046,0.041 -0.077,0.041l-2.809,-0c-0.076,-0 -0.12,-0.082 -0.08,-0.144Z" style="fill:#fff;fill-rule:nonzero;"/><path d="M17.354,11.646l0,0.676c0,0.039 -0.023,0.074 -0.058,0.089c-0.211,0.091 -0.935,0.423 -1.236,0.841c-0.768,1.069 -1.355,2.598 -2.667,2.598l-5.472,-0c-1.94,-0 -3.511,-1.577 -3.511,-3.523l-0,-0.063c-0,-0.052 0.042,-0.094 0.094,-0.094l3.05,0c0.061,0 0.105,0.056 0.099,0.116c-0.021,0.198 0.016,0.401 0.109,0.586c0.182,0.367 0.557,0.597 0.963,0.597l1.51,0l-0,-1.179l-1.493,0c-0.077,0 -0.122,-0.088 -0.078,-0.151c0.016,-0.025 0.035,-0.051 0.054,-0.08c0.141,-0.2 0.343,-0.512 0.544,-0.867c0.137,-0.24 0.269,-0.495 0.376,-0.752c0.022,-0.046 0.039,-0.094 0.056,-0.14c0.029,-0.082 0.06,-0.159 0.081,-0.235c0.022,-0.065 0.039,-0.133 0.056,-0.197c0.051,-0.218 0.073,-0.448 0.073,-0.688c-0,-0.094 -0.005,-0.192 -0.013,-0.286c-0.005,-0.102 -0.018,-0.205 -0.031,-0.307c-0.008,-0.091 -0.024,-0.18 -0.042,-0.274c-0.021,-0.137 -0.051,-0.273 -0.086,-0.41l-0.012,-0.052c-0.026,-0.094 -0.047,-0.183 -0.077,-0.277c-0.086,-0.295 -0.184,-0.581 -0.287,-0.85c-0.038,-0.107 -0.081,-0.209 -0.124,-0.312c-0.064,-0.154 -0.129,-0.294 -0.188,-0.427c-0.03,-0.06 -0.056,-0.115 -0.082,-0.172c-0.029,-0.063 -0.059,-0.127 -0.09,-0.187c-0.021,-0.047 -0.046,-0.09 -0.063,-0.133l-0.185,-0.341c-0.026,-0.046 0.018,-0.101 0.068,-0.087l1.154,0.313l0.004,-0c0.002,-0 0.003,0.001 0.004,0.001l0.152,0.042l0.167,0.047l0.062,0.018l-0,-0.686c-0,-0.332 0.265,-0.6 0.593,-0.6c0.164,-0 0.313,0.067 0.42,0.176c0.106,0.109 0.173,0.257 0.173,0.424l0,1.018l0.123,0.034c0.01,0.004 0.02,0.008 0.028,0.014c0.031,0.023 0.074,0.056 0.129,0.097c0.043,0.035 0.089,0.077 0.145,0.12c0.111,0.09 0.244,0.205 0.39,0.338c0.039,0.033 0.076,0.068 0.111,0.102c0.188,0.175 0.398,0.38 0.599,0.607c0.056,0.063 0.111,0.128 0.167,0.196c0.056,0.069 0.115,0.137 0.167,0.205c0.068,0.09 0.141,0.184 0.205,0.282c0.03,0.047 0.065,0.094 0.094,0.141c0.082,0.124 0.154,0.252 0.223,0.38c0.029,0.06 0.059,0.125 0.085,0.188c0.077,0.172 0.137,0.346 0.176,0.521c0.012,0.038 0.021,0.079 0.025,0.116l-0,0.008c0.013,0.052 0.017,0.107 0.022,0.163c0.017,0.179 0.008,0.358 -0.031,0.538c-0.016,0.077 -0.037,0.149 -0.063,0.226c-0.026,0.073 -0.052,0.15 -0.086,0.222c-0.064,0.15 -0.141,0.3 -0.231,0.44c-0.03,0.052 -0.064,0.107 -0.099,0.159c-0.037,0.055 -0.076,0.107 -0.111,0.157c-0.047,0.065 -0.098,0.133 -0.15,0.193c-0.046,0.064 -0.094,0.128 -0.145,0.184c-0.073,0.085 -0.142,0.166 -0.214,0.243c-0.043,0.051 -0.089,0.103 -0.137,0.149c-0.046,0.052 -0.094,0.099 -0.137,0.142c-0.072,0.072 -0.133,0.128 -0.183,0.174l-0.119,0.109c-0.017,0.015 -0.04,0.024 -0.064,0.024l-0.919,0l0,1.179l1.157,0c0.259,0 0.505,-0.092 0.703,-0.26c0.068,-0.059 0.365,-0.316 0.715,-0.703c0.012,-0.013 0.027,-0.023 0.044,-0.027l3.195,-0.924c0.059,-0.017 0.119,0.029 0.119,0.091Z" style="fill:#fff;fill-rule:nonzero;"/></g></svg>