<?xml version="1.0" encoding="UTF-8" standalone="no"?><!DOCTYPE svg PUBLIC "-//W3C//DTD SVG 1.1//EN" "http://www.w3.org/Graphics/SVG/1.1/DTD/svg11.dtd"><svg width="100%" height="100%" viewBox="0 0 21 21" version="1.1" xmlns="http://www.w3.org/2000/svg" xmlns:xlink="http://www.w3.org/1999/xlink" xml:space="preserve" xmlns:serif="http://www.serif.com/" style="fill-rule:evenodd;clip-rule:evenodd;stroke-linejoin:round;stroke-miterlimit:2;"><g id="Layer1"></g><g id="polygonscan"><g id="favicon"><g id="Mask_Group_3"><path id="Path_151" d="M15.852,6.92c-0.408,-0.228 -0.907,-0.228 -1.316,0l-3.019,1.753l-2.052,1.144l-3.019,1.753c-0.408,0.228 -0.908,0.228 -1.316,-0l-2.4,-1.372c-0.397,-0.228 -0.647,-0.648 -0.658,-1.105l0,-2.706c-0.005,-0.462 0.249,-0.89 0.658,-1.105l2.361,-1.334c0.409,-0.228 0.908,-0.228 1.316,-0l2.362,1.334c0.396,0.227 0.646,0.647 0.657,1.105l0,1.753l2.052,-1.181l-0,-1.753c0.005,-0.463 -0.249,-0.89 -0.658,-1.106l-4.374,-2.515c-0.408,-0.228 -0.908,-0.228 -1.316,0l-4.452,2.516c-0.409,0.215 -0.663,0.643 -0.658,1.105l0,5.068c-0.005,0.462 0.249,0.89 0.658,1.105l4.451,2.515c0.409,0.229 0.908,0.229 1.317,0l3.019,-1.715l2.051,-1.181l3.02,-1.715c0.408,-0.228 0.907,-0.228 1.316,0l2.361,1.334c0.397,0.228 0.647,0.647 0.658,1.105l-0,2.706c0.005,0.462 -0.249,0.89 -0.658,1.105l-2.361,1.372c-0.409,0.228 -0.908,0.228 -1.316,-0l-2.362,-1.334c-0.396,-0.228 -0.646,-0.648 -0.657,-1.105l-0,-1.753l-2.052,1.181l0,1.753c-0.005,0.462 0.249,0.89 0.658,1.105l4.452,2.515c0.408,0.229 0.907,0.229 1.316,0l4.451,-2.515c0.397,-0.228 0.647,-0.647 0.658,-1.105l-0,-5.068c0.005,-0.462 -0.249,-0.89 -0.658,-1.105l-4.49,-2.554Z" style="fill:#8247e5;fill-rule:nonzero;"/></g></g></g></svg>