<?xml version="1.0" encoding="UTF-8" standalone="no"?><!DOCTYPE svg PUBLIC "-//W3C//DTD SVG 1.1//EN" "http://www.w3.org/Graphics/SVG/1.1/DTD/svg11.dtd"><svg width="100%" height="100%" viewBox="0 0 21 21" version="1.1" xmlns="http://www.w3.org/2000/svg" xmlns:xlink="http://www.w3.org/1999/xlink" xml:space="preserve" xmlns:serif="http://www.serif.com/" style="fill-rule:evenodd;clip-rule:evenodd;stroke-linejoin:round;stroke-miterlimit:2;"><g id="x"><path d="M1.593,1.002l4.239,-0.121l13.478,19.404l-4.142,-0.057l-13.575,-19.226Z"/><path d="M12.455,8.892l7.65,-8.892l-1.813,0l-6.642,7.721l-5.305,-7.721l-6.119,0l8.022,11.675l-8.022,9.325l1.813,-0l7.014,-8.153l5.602,8.153l6.119,-0l-8.32,-12.108l0.001,0Zm-2.483,2.886l-0.813,-1.162l-6.467,-9.251l2.784,-0l5.219,7.465l0.813,1.163l6.785,9.704l-2.785,0l-5.536,-7.918l-0,-0.001Z" style="fill:#fff;fill-rule:nonzero;"/></g></svg>